<svg
   xmlns="http://www.w3.org/2000/svg"
   height="24"
   viewBox="0 0 24 24"
   width="24">
  <path
     d="M0 0h24v24H0z"
     fill="none" />
  <path
     d="M 11.746094 2 C 9.8249416 2 8.2460936 3.578848 8.2460938 5.5 C 8.2460938 6.0380001 8.3810841 6.542845 8.6015625 7 L 6.0234375 7 C 4.9154375 7 4.2216885 7.90988 4.0234375 9 L 2.0234375 20 C 1.8251864 21.09012 2.9154375 22 4.0234375 22 L 20.023438 22 C 21.131438 22 22.221597 21.090136 22.023438 20 L 20.023438 9 C 19.825278 7.909864 19.131438 7 18.023438 7 L 14.890625 7 C 15.111103 6.542845 15.246094 6.0380001 15.246094 5.5 C 15.246094 3.578848 13.667246 2 11.746094 2 z M 11.746094 4 C 12.586366 4 13.246094 4.6597282 13.246094 5.5 C 13.246094 6.3402718 12.586366 7 11.746094 7 C 10.905822 7 10.246094 6.3402718 10.246094 5.5 C 10.246094 4.6597282 10.905822 4 11.746094 4 z " />
</svg>
